<?xml version="1.0" encoding="UTF-8" standalone="no"?>
<!-- Created with Inkscape (http://www.inkscape.org/) -->

<svg
   xmlns:dc="http://purl.org/dc/elements/1.1/"
   xmlns:cc="http://creativecommons.org/ns#"
   xmlns:rdf="http://www.w3.org/1999/02/22-rdf-syntax-ns#"
   xmlns:svg="http://www.w3.org/2000/svg"
   xmlns="http://www.w3.org/2000/svg"
   xmlns:sodipodi="http://sodipodi.sourceforge.net/DTD/sodipodi-0.dtd"
   xmlns:inkscape="http://www.inkscape.org/namespaces/inkscape"
   width="34mm"
   height="11.623375mm"
   viewBox="0 0 34 11.623375"
   version="1.1"
   id="svg8"
   sodipodi:docname="logo.svg"
   inkscape:version="0.92.4 (5da689c313, 2019-01-14)">
  <defs
     id="defs2" />
  <sodipodi:namedview
     id="base"
     pagecolor="#ffffff"
     bordercolor="#666666"
     borderopacity="1.0"
     inkscape:pageopacity="0.0"
     inkscape:pageshadow="2"
     inkscape:zoom="2.8"
     inkscape:cx="99.537255"
     inkscape:cy="-19.571251"
     inkscape:document-units="mm"
     inkscape:current-layer="layer1"
     showgrid="false"
     inkscape:window-width="1920"
     inkscape:window-height="1017"
     inkscape:window-x="-8"
     inkscape:window-y="-8"
     inkscape:window-maximized="1" />
  <metadata
     id="metadata5">
    <rdf:RDF>
      <cc:Work
         rdf:about="">
        <dc:format>image/svg+xml</dc:format>
        <dc:type
           rdf:resource="http://purl.org/dc/dcmitype/StillImage" />
        <dc:title></dc:title>
      </cc:Work>
    </rdf:RDF>
  </metadata>
  <g
     inkscape:label="Layer 1"
     inkscape:groupmode="layer"
     id="layer1"
     transform="translate(-40,-39.867708)">
    <g
       aria-label="The Pantry"
       style="font-style:normal;font-weight:normal;font-size:10.58333302px;line-height:1.25;font-family:sans-serif;letter-spacing:0px;word-spacing:0px;fill:#000000;fill-opacity:1;stroke:none;stroke-width:0.26458332"
       id="text3721">
      <path
         id="path3778"
         style="font-style:normal;font-variant:normal;font-weight:normal;font-stretch:normal;font-family:'FISH&amp;CHIPS';-inkscape-font-specification:'FISH&amp;CHIPS';stroke-width:0.26458332;fill:#000000"
         d="m 72.836611,43.394833 q 0.08467,-0.01058 0.264583,-0.01058 0.211667,0 0.3175,0.01058 -0.03175,0 0.306917,0.02117 h 0.03175 q 0.0635,0.01058 0.105833,0.0635 0.04233,0.04233 0.04233,0.09525 -0.01058,0.0635 -0.0635,0.105833 -0.04233,0.04233 -0.105833,0.03175 h -0.03175 q -0.09525,-0.01058 -0.211667,-0.01058 v 0.05292 0.05292 q 0.01058,0.05292 0.01058,0.169334 0.01058,0.264583 0.01058,0.762 0,0.804333 -0.04233,1.354666 l -0.03175,0.338667 -0.02117,0.370417 q -0.01058,0.264583 -0.01058,1.17475 0,1.17475 -0.05292,1.767416 -0.05292,0.592667 -0.22225,1.005417 -0.3175,0.740833 -1.0795,0.740833 -0.423333,0 -0.941917,-0.211666 -0.09525,-0.04233 -0.09525,-0.137584 0,-0.07408 0.05292,-0.127 0.0635,-0.04233 0.148167,-0.01058 0.497416,0.201083 0.846666,0.201083 0.296334,0 0.47625,-0.148166 0.1905,-0.137584 0.3175,-0.423334 0.15875,-0.370416 0.201084,-0.941916 0.05292,-0.560917 0.05292,-1.7145 v -0.02117 -0.02117 l -0.04233,0.116417 q -0.15875,0.328083 -0.381,0.518583 Q 72.476777,48.75 72.201611,48.75 q -0.211667,0 -0.391584,-0.08467 -0.402166,-0.15875 -0.5715,-0.772583 -0.169333,-0.624417 -0.169333,-1.651 l 0.01058,-0.47625 q 0,-0.465667 0.04233,-1.026583 0.04233,-0.751417 0.04233,-1.058334 -0.07408,0.01058 -0.232833,0.01058 -0.0635,0 -0.105834,-0.04233 -0.04233,-0.04233 -0.04233,-0.105833 v -0.02117 q 0,-0.05292 0.04233,-0.08467 0.04233,-0.04233 0.09525,-0.04233 l 0.370417,-0.01058 q 0.296333,0 0.497417,0.03175 0.0635,0 0.09525,0.05292 0.04233,0.04233 0.04233,0.105833 -0.01058,0.05292 -0.05292,0.09525 -0.04233,0.03175 -0.09525,0.03175 l -0.3175,-0.01058 q 0,0.296333 -0.04233,1.058333 -0.0635,0.889 -0.0635,1.449917 0,0.73025 0.105833,1.30175 0.07408,0.4445 0.275167,0.709083 0.211667,0.264583 0.455083,0.264583 0.169334,0 0.3175,-0.137583 0.15875,-0.137583 0.28575,-0.41275 0.243417,-0.518583 0.34925,-1.524 l 0.02117,-0.359833 q 0,-0.03175 0.01058,-0.05292 0.04233,-0.518583 0.04233,-1.280583 0,-0.47625 -0.01058,-0.73025 0,-0.105834 -0.01058,-0.15875 v -0.07408 -0.0635 q -0.232833,0 -0.338667,0.01058 -0.0635,0 -0.105833,-0.03175 -0.04233,-0.04233 -0.04233,-0.105834 v -0.02117 q 0,-0.05292 0.03175,-0.09525 0.04233,-0.04233 0.09525,-0.04233 z m -4.159913,0.08467 q 0.02117,0.9525 0.02117,1.344083 l 0.0635,-0.169333 q 0.47625,-1.100667 1.322916,-1.100667 0.105834,0 0.15875,0.01058 0.05292,0 0.08467,0.04233 0.04233,0.04233 0.04233,0.09525 0,0.07408 -0.05292,0.116417 -0.04233,0.04233 -0.116417,0.03175 L 70.08428,43.83933 q -0.624416,0 -0.98425,0.762 -0.34925,0.762 -0.433916,1.8415 v 0.0635 q -0.02117,0.889 -0.02117,1.227667 l 0.01058,0.73025 h 0.0635 0.08467 l 0.09525,0.01058 h 0.08467 q 0.0635,0 0.105833,0.05292 0.04233,0.04233 0.04233,0.09525 -0.01058,0.0635 -0.05292,0.105833 -0.04233,0.04233 -0.105834,0.04233 h -0.08467 l -0.09525,-0.01058 h -0.08467 q -0.116417,0 -0.15875,-0.01058 -0.306917,0 -0.455083,0.01058 -0.0635,0 -0.116417,-0.04233 -0.04233,-0.04233 -0.04233,-0.105833 0,-0.05292 0.04233,-0.09525 0.04233,-0.05292 0.09525,-0.05292 0.09525,-0.01058 0.28575,-0.01058 l -0.01058,-0.709084 0.01058,-0.751416 q -0.01058,-0.02117 -0.01058,-0.0635 0,-0.179917 0.02117,-0.497417 v -0.243417 q 0.02117,-0.582083 0.02117,-1.608666 0,-0.762 -0.01058,-1.090084 0,-0.0635 0.04233,-0.105833 0.04233,-0.04233 0.105833,-0.04233 0.0635,0 0.105834,0.04233 0.04233,0.04233 0.04233,0.09525 z m -3.871681,-0.09525 q 0.243417,0 0.4445,0.01058 h 0.07408 v -0.507999 q 0,-0.8255 0.01058,-1.217084 0,-0.0635 0.04233,-0.105833 0.04233,-0.04233 0.105833,-0.04233 0.0635,0 0.105834,0.04233 0.04233,0.04233 0.04233,0.105833 -0.01058,0.391584 -0.01058,1.217084 v 0.518583 Q 65.842184,43.416 66.2126,43.416 h 0.02117 q 0.05292,0 0.08467,0.04233 0.04233,0.04233 0.05292,0.09525 0,0.0635 -0.04233,0.105834 -0.04233,0.04233 -0.105833,0.05292 -0.381,0 -0.60325,-0.01058 v 0.254 0.751417 0.381 q 0,0.592666 -0.01058,0.85725 0,0.15875 -0.01058,0.306916 -0.01058,0.243417 -0.01058,0.582084 0,0.878416 0.15875,1.312333 0.169333,0.433917 0.5715,0.433917 0.105833,0 0.15875,-0.01058 0.28575,-0.04233 0.423333,-0.529166 0.03175,-0.116417 0.148167,-0.116417 0.07408,0 0.116416,0.0635 0.05292,0.0635 0.02117,0.137583 -0.201083,0.677334 -0.656167,0.740834 -0.169333,0.02117 -0.232833,0.02117 -0.560917,0 -0.783167,-0.529166 -0.22225,-0.529167 -0.22225,-1.524 0,-0.338667 0.01058,-0.592667 l 0.01058,-0.296333 q 0.01058,-0.264584 0.01058,-0.85725 v -0.381 -0.740834 -0.275166 h -0.08467 q -0.1905,-0.01058 -0.433917,-0.01058 -0.0635,0 -0.105833,-0.04233 -0.04233,-0.04233 -0.04233,-0.105833 0,-0.0635 0.04233,-0.105834 0.04233,-0.04233 0.105833,-0.04233 z m -1.293315,4.931833 q -0.01058,0.05292 -0.01058,0.137584 h 0.28575 q 0.0635,0 0.105834,0.04233 0.04233,0.04233 0.04233,0.105833 0,0.0635 -0.04233,0.105834 Q 63.850368,48.75 63.786868,48.75 h -0.4445 q -0.04233,0 -0.07408,0.01058 h -0.02117 -0.0635 -0.296333 q -0.0635,0 -0.105833,-0.04233 -0.04233,-0.04233 -0.04233,-0.105833 0,-0.05292 0.04233,-0.09525 0.04233,-0.05292 0.105833,-0.05292 h 0.28575 0.03175 q 0,-0.09525 0.01058,-0.15875 v -0.15875 q 0.01058,-0.0635 0.01058,-0.169333 0.02117,-0.762 0.02117,-1.195917 0,-1.894417 -0.338666,-2.614083 -0.169334,-0.34925 -0.402167,-0.34925 -0.232833,0 -0.592667,0.328083 -0.433916,0.391583 -0.60325,1.17475 -0.169333,0.772583 -0.15875,1.894417 v 0.02117 1.2065 q 0.232834,0 0.306917,-0.01058 h 0.02117 q 0.05292,0 0.09525,0.04233 0.04233,0.03175 0.05292,0.08467 0,0.0635 -0.04233,0.116417 -0.03175,0.04233 -0.09525,0.05292 -0.211667,0.02117 -0.465667,0.01058 h -0.338666 q -0.03175,0.01058 -0.07408,0.01058 -0.0635,0 -0.116416,-0.03175 -0.04233,-0.04233 -0.04233,-0.105833 v -0.02117 q 0,-0.05292 0.04233,-0.09525 0.04233,-0.04233 0.09525,-0.04233 0.05292,0 0.08467,-0.01058 H 60.8553 v -1.418166 -0.01058 l -0.01058,-1.883833 0.01058,-1.534583 q 0,-0.0635 0.04233,-0.105834 0.05292,-0.04233 0.116417,-0.04233 0.05292,0 0.09525,0.04233 0.04233,0.04233 0.04233,0.105834 v 1.227666 q 0.1905,-0.53975 0.582084,-0.92075 0.391583,-0.381 0.772583,-0.381 0.41275,0 0.66675,0.518584 0.211667,0.433916 0.28575,1.132416 0.08467,0.687917 0.08467,1.5875 0,0.4445 -0.02117,1.227667 0,0.105833 -0.01058,0.169333 z M 57.591319,43.70175 q 0.455083,-0.264583 0.804333,-0.264583 0.518584,0 0.751417,0.592666 0.116417,0.254 0.15875,0.624417 0.04233,0.359833 0.04233,0.889 0,0.402167 -0.01058,0.635 -0.01058,0.08467 -0.01058,0.34925 -0.02117,0.381 -0.02117,0.931333 0,0.359834 0.01058,0.47625 0.05292,0.582084 0.211667,0.66675 0.07408,0.04233 0.07408,0.116417 0,0.08467 -0.0635,0.127 -0.0635,0.05292 -0.148166,0.01058 -0.179917,-0.09525 -0.275167,-0.359833 l -0.04233,-0.169333 q -0.4445,0.47625 -0.878417,0.47625 -0.306917,0 -0.550333,-0.243417 -0.243417,-0.243417 -0.381,-0.687917 -0.15875,-0.47625 -0.15875,-1.026583 0,-0.518583 0.15875,-0.98425 0.15875,-0.465667 0.455083,-0.751417 0.137583,-0.137583 0.359833,-0.22225 0.232834,-0.09525 0.4445,-0.09525 0.306917,0 0.508,0.201084 -0.08467,-1.259417 -0.645583,-1.259417 -0.243417,0 -0.656167,0.22225 -0.04233,0.02117 -0.07408,0.02117 -0.05292,0 -0.09525,-0.04233 -0.04233,-0.05292 -0.04233,-0.116416 0,-0.07408 0.07408,-0.116417 z m 1.449917,2.19075 q -0.02117,-0.433917 -0.169334,-0.635 -0.127,-0.179917 -0.359833,-0.179917 -0.116417,0 -0.306917,0.07408 -0.1905,0.08467 -0.28575,0.169333 -0.243416,0.243417 -0.381,0.66675 -0.137583,0.41275 -0.137583,0.878417 0,0.4445 0.137583,0.910166 0.232834,0.73025 0.66675,0.73025 0.34925,0 0.762,-0.508 0.01058,-0.02117 0.05292,-0.04233 -0.01058,-0.116417 -0.01058,-0.486833 0,-0.5715 0.02117,-0.9525 0,-0.264584 0.01058,-0.338667 v -0.275167 z m -4.929519,-4.836583 q 0.201083,-0.05292 0.4445,-0.05292 0.508,0 0.889,0.306917 0.391583,0.306917 0.592667,0.846667 0.211666,0.529166 0.211666,1.185333 0,0.941916 -0.423333,1.693333 -0.41275,0.751417 -1.143,1.005417 v 0.15875 2.25425 h 0.296333 q 0.05292,0 0.09525,0.04233 0.05292,0.04233 0.05292,0.105833 0,0.0635 -0.05292,0.105834 Q 55.032467,48.75 54.97955,48.75 h -0.402166 -0.04233 -0.04233 q -0.28575,0 -0.41275,0.01058 -0.0635,0 -0.116417,-0.04233 -0.04233,-0.04233 -0.04233,-0.105833 0,-0.0635 0.04233,-0.105834 0.04233,-0.04233 0.105834,-0.04233 0.105833,-0.01058 0.3175,-0.01058 V 46.199417 45.956 45.659667 45.109333 q -0.01058,-1.703916 -0.01058,-3.809999 -0.169333,0.04233 -0.22225,0.04233 -0.04233,0 -0.08467,-0.02117 -0.0635,-0.03175 -0.0635,-0.116416 0,-0.05292 0.02117,-0.08467 0.03175,-0.04233 0.08467,-0.0635 z m 0.5715,4.66725 q 0.5715,-0.232834 0.92075,-0.878417 0.34925,-0.656167 0.34925,-1.471083 0,-1.090083 -0.53975,-1.693333 -0.296333,-0.328084 -0.740833,-0.381 0,2.106083 0.01058,3.809999 v 0.550334 0.03175 z m -6.200014,0.07408 q -0.01058,0.09525 -0.01058,0.296333 0,0.85725 0.15875,1.4605 0.15875,0.592667 0.4445,0.846667 0.169333,0.137583 0.34925,0.137583 0.359833,0 0.719666,-0.486833 0.05292,-0.0635 0.116417,-0.0635 0.0635,0 0.116417,0.05292 0.05292,0.04233 0.05292,0.09525 0,0.04233 -0.03175,0.09525 -0.211666,0.28575 -0.465666,0.4445 -0.254,0.15875 -0.508,0.15875 -0.296334,0 -0.550334,-0.22225 -0.359833,-0.3175 -0.53975,-0.92075 -0.169333,-0.613834 -0.169333,-1.354667 0,-0.5715 0.09525,-1.100667 0.09525,-0.529166 0.254,-0.878416 0.338667,-0.6985 0.804333,-0.85725 0.116417,-0.04233 0.243417,-0.04233 0.381,0 0.624417,0.433917 0.232833,0.423333 0.232833,1.23825 0,0.148167 -0.02117,0.486833 0,0.116417 -0.105833,0.127 -0.0635,0.02117 -0.07408,0.02117 -0.423334,0.02117 -0.772584,0.02117 H 49.11821 48.95946 q -0.34925,0 -0.47625,0.01058 z m 1.61925,-0.328083 q 0.01058,-0.116417 0.01058,-0.338667 0,-0.73025 -0.201083,-1.100667 -0.137583,-0.275166 -0.34925,-0.275166 -0.09525,0 -0.137583,0.02117 -0.328084,0.127 -0.582084,0.624417 -0.254,0.497417 -0.328083,1.100667 0.127,-0.01058 0.4445,-0.01058 h 0.169333 q 0.53975,0.01058 0.973667,-0.02117 z M 46.4727,48.474833 h 0.01058 V 48.01975 l 0.02117,-0.910167 v -0.243416 q 0.02117,-0.804334 0.02117,-1.04775 0,-1.11125 -0.127,-1.629834 -0.127,-0.582083 -0.423333,-0.582083 -0.201084,0 -0.53975,0.243417 -0.264584,0.1905 -0.529167,0.582083 -0.264583,0.381 -0.4445,0.8255 L 44.4407,48.496 q 0.254,0 0.370417,0.01058 0.05292,0.01058 0.09525,0.05292 0.04233,0.04233 0.04233,0.105833 0,0.0635 -0.05292,0.09525 -0.04233,0.04233 -0.105834,0.04233 l -0.264583,-0.01058 -0.338667,0.01058 q -0.08467,0.01058 -0.22225,0.01058 -0.105833,0 -0.137583,-0.01058 -0.05292,0 -0.09525,-0.04233 -0.04233,-0.04233 -0.04233,-0.105833 0,-0.0635 0.04233,-0.105833 0.05292,-0.04233 0.105833,-0.04233 h 0.306917 l 0.02117,-3.217333 q -0.01058,-0.04233 0,-0.08467 v -0.254 -0.116416 L 44.1867,41.1935 h -0.3175 q -0.0635,0 -0.105833,-0.04233 -0.04233,-0.04233 -0.04233,-0.105833 0,-0.0635 0.04233,-0.105834 0.05292,-0.04233 0.116417,-0.04233 h 0.328083 q 0.127,-0.01058 0.34925,-0.01058 0.201083,0 0.28575,0.01058 0.0635,0.01058 0.105833,0.05292 0.04233,0.04233 0.04233,0.105833 -0.01058,0.0635 -0.05292,0.105833 -0.04233,0.03175 -0.105833,0.03175 -0.116417,-0.01058 -0.34925,-0.01058 0,1.915583 -0.01058,3.386666 0.3175,-0.5715 0.73025,-0.910166 0.41275,-0.338667 0.772584,-0.338667 0.137583,0 0.232833,0.04233 0.328083,0.148167 0.455083,0.66675 0.137584,0.508 0.148167,1.407584 v 0.34925 q 0,0.772583 -0.01058,1.322916 l -0.02117,0.92075 v 0.433917 q 0.22225,0 0.328083,0.01058 0.0635,0.01058 0.105834,0.05292 0.04233,0.04233 0.04233,0.105833 -0.01058,0.0635 -0.05292,0.105834 -0.04233,0.03175 -0.105833,0.03175 l -0.275167,-0.01058 -0.338666,0.01058 q -0.08467,0.01058 -0.211667,0.01058 -0.105833,0 -0.137583,-0.01058 -0.0635,0 -0.105834,-0.04233 -0.04233,-0.04233 -0.04233,-0.105833 0,-0.0635 0.04233,-0.105833 0.05292,-0.04233 0.116417,-0.04233 z m -6.007033,-7.397749 q 0.455083,0 0.79375,0.01058 h 0.751416 q 0.550334,0 0.79375,-0.01058 0.0635,0 0.105834,0.04233 0.04233,0.04233 0.04233,0.105833 0,0.0635 -0.04233,0.105834 -0.04233,0.04233 -0.09525,0.04233 Q 42.57175,41.384 42.010833,41.384 H 41.74625 q 0,1.61925 -0.03175,4.053417 -0.03175,2.201333 -0.03175,2.9845 h 0.254 q 0.05292,0 0.09525,0.04233 0.05292,0.03175 0.0635,0.09525 0,0.0635 -0.04233,0.116417 -0.04233,0.04233 -0.105834,0.04233 L 41.767417,48.728833 41.524,48.71825 h -0.105833 q -0.275167,0 -0.34925,0.01058 -0.05292,0 -0.105834,-0.04233 -0.04233,-0.04233 -0.04233,-0.105833 0,-0.0635 0.04233,-0.105834 0.04233,-0.04233 0.105834,-0.04233 0.0635,-0.01058 0.3175,-0.01058 0,-0.783167 0.03175,-2.9845 0.03175,-2.44475 0.03175,-4.053417 h -0.1905 q -0.34925,-0.01058 -0.79375,-0.01058 -0.0635,0 -0.105834,-0.04233 -0.04233,-0.04233 -0.04233,-0.105834 0,-0.05292 0.04233,-0.09525 0.04233,-0.05292 0.105834,-0.05292 z" />
    </g>
    <path
       style="fill:#000000;stroke:#000000;stroke-width:0.26458332px;stroke-linecap:butt;stroke-linejoin:miter;stroke-opacity:1"
       d="m 40,40 h 34 v 0"
       id="path3725"
       inkscape:connector-curvature="0" />
    <path
       style="fill:#000000;stroke:#000000;stroke-width:0.26458332px;stroke-linecap:butt;stroke-linejoin:miter;stroke-opacity:1"
       d="m 40,50 h 32 v 0"
       id="path3725-3"
       inkscape:connector-curvature="0" />
  </g>
</svg>
